<svg viewBox="0 0 2048 1152" width="2048" height="1152" xmlns="http://www.w3.org/2000/svg">
  <defs>
    <radialGradient id="space" cx="42%" cy="42%" r="80%">
      <stop offset="0" stop-color="#1A2C66"/>
      <stop offset="0.55" stop-color="#0A1430"/>
      <stop offset="1" stop-color="#04060F"/>
    </radialGradient>
    <linearGradient id="neonEdge" x1="0" y1="0" x2="1" y2="1">
      <stop offset="0" stop-color="#22D3EE"/>
      <stop offset="0.5" stop-color="#3B82F6"/>
      <stop offset="1" stop-color="#A855F7"/>
    </linearGradient>
    <linearGradient id="beam" x1="0" y1="1" x2="0" y2="0">
      <stop offset="0" stop-color="#22D3EE"/>
      <stop offset="1" stop-color="#C084FC"/>
    </linearGradient>
    <linearGradient id="glass" x1="0" y1="0" x2="0" y2="1">
      <stop offset="0" stop-color="#FFFFFF" stop-opacity="0.26"/>
      <stop offset="0.5" stop-color="#9DB7FF" stop-opacity="0.07"/>
      <stop offset="1" stop-color="#3B82F6" stop-opacity="0.12"/>
    </linearGradient>
    <linearGradient id="panel" x1="0" y1="0" x2="0" y2="1">
      <stop offset="0" stop-color="#FFFFFF" stop-opacity="0.10"/>
      <stop offset="1" stop-color="#FFFFFF" stop-opacity="0.03"/>
    </linearGradient>
    <radialGradient id="nodeGlow" cx="50%" cy="50%" r="50%">
      <stop offset="0" stop-color="#67E8F9" stop-opacity="0.95"/>
      <stop offset="0.4" stop-color="#22D3EE" stop-opacity="0.5"/>
      <stop offset="1" stop-color="#22D3EE" stop-opacity="0"/>
    </radialGradient>
    <radialGradient id="coreGlow" cx="50%" cy="50%" r="50%">
      <stop offset="0" stop-color="#3B82F6" stop-opacity="0.55"/>
      <stop offset="1" stop-color="#3B82F6" stop-opacity="0"/>
    </radialGradient>
    <filter id="soft" x="-80%" y="-80%" width="260%" height="260%"><feGaussianBlur stdDeviation="9"/></filter>
    <filter id="soft2" x="-60%" y="-60%" width="220%" height="220%"><feGaussianBlur stdDeviation="5"/></filter>
    <pattern id="dots" width="34" height="34" patternUnits="userSpaceOnUse">
      <circle cx="2" cy="2" r="1.5" fill="#6E8BFF" fill-opacity="0.10"/>
    </pattern>
    <g id="cloud">
      <rect x="-80" y="8" width="160" height="46" rx="23"/>
      <circle cx="-48" cy="8" r="34"/>
      <circle cx="2" cy="-22" r="46"/>
      <circle cx="50" cy="6" r="32"/>
      <circle cx="8" cy="20" r="30"/>
    </g>
  </defs>

  <rect width="2048" height="1152" fill="url(#space)"/>
  <rect width="2048" height="1152" fill="url(#dots)"/>
  <circle cx="575" cy="540" r="430" fill="url(#coreGlow)"/>
  <circle cx="1650" cy="980" r="420" fill="url(#coreGlow)" opacity="0.6"/>

  <use href="#cloud" transform="translate(1640,150) scale(4.2)" fill="#FFFFFF" opacity="0.035"/>

  <g stroke="#22D3EE" stroke-opacity="0.16" fill="none" stroke-width="2">
    <path d="M0,250 H150 L195,205 H330"/>
    <path d="M2048,300 H1860 L1815,345 H1700"/>
    <path d="M120,900 H300 L340,860 H470"/>
    <path d="M2048,860 H1900 L1860,900 H1740"/>
  </g>
  <g fill="#22D3EE" fill-opacity="0.5">
    <circle cx="150" cy="250" r="3"/><circle cx="1700" cy="345" r="3"/>
    <circle cx="120" cy="900" r="3"/><circle cx="1740" cy="900" r="3"/>
    <circle cx="1500" cy="200" r="2.4"/><circle cx="300" cy="1010" r="2.4"/>
  </g>

  <circle cx="575" cy="576" r="150" fill="none" stroke="#A855F7" stroke-opacity="0.16" stroke-width="6"/>
  <circle cx="575" cy="576" r="150" fill="none" stroke="#22D3EE" stroke-opacity="0.30" stroke-width="1.6"/>
  <g>
    <circle cx="575" cy="426" r="17" fill="url(#nodeGlow)"/><circle cx="575" cy="426" r="5" fill="#ECFEFF"/>
    <circle cx="718" cy="530" r="17" fill="url(#nodeGlow)"/><circle cx="718" cy="530" r="5" fill="#ECFEFF"/>
    <circle cx="663" cy="697" r="17" fill="url(#nodeGlow)"/><circle cx="663" cy="697" r="5" fill="#ECFEFF"/>
    <circle cx="487" cy="697" r="17" fill="url(#nodeGlow)"/><circle cx="487" cy="697" r="5" fill="#ECFEFF"/>
    <circle cx="432" cy="530" r="17" fill="url(#nodeGlow)"/><circle cx="432" cy="530" r="5" fill="#ECFEFF"/>
  </g>
  <use href="#cloud" transform="translate(575,576) scale(1.98)" fill="#22D3EE" opacity="0.16" filter="url(#soft)"/>
  <use href="#cloud" transform="translate(575,576) scale(1.8)" fill="url(#neonEdge)"/>
  <use href="#cloud" transform="translate(575,576) scale(1.7)" fill="url(#glass)" stroke="#CFFAFE" stroke-opacity="0.4" stroke-width="1.6"/>
  <path d="M558,662.7 L558,543.7 L527.4,543.7 L575,451.9 L622.6,543.7 L592,543.7 L592,662.7 Z" fill="url(#beam)" opacity="0.45" filter="url(#soft)"/>
  <path d="M561.4,661 L561.4,543.7 L534.2,543.7 L575,460.4 L615.8,543.7 L588.6,543.7 L588.6,661 Z" fill="url(#beam)"/>
  <line x1="575" y1="460" x2="575" y2="661" stroke="#ECFEFF" stroke-opacity="0.85" stroke-width="2.5"/>

  <rect x="750" y="412" width="872" height="330" rx="26" fill="url(#panel)" stroke="#9DD7FF" stroke-opacity="0.22" stroke-width="1.5"/>
  <line x1="772" y1="414" x2="1600" y2="414" stroke="#FFFFFF" stroke-opacity="0.18" stroke-width="2"/>
  <g stroke="#22D3EE" stroke-opacity="0.75" stroke-width="3" fill="none">
    <path d="M742,452 L742,404 L792,404"/>
    <path d="M1580,404 L1630,404 L1630,452"/>
    <path d="M742,702 L742,750 L792,750"/>
    <path d="M1580,750 L1630,750 L1630,702"/>
  </g>

  <text x="786" y="470" font-family="Arial, Helvetica, sans-serif" font-size="25" font-weight="700" fill="#38BDF8" letter-spacing="5">CLOUD COMPUTING · FOR ABSOLUTE BEGINNERS</text>
  <text x="783" y="556" font-family="Arial, Helvetica, sans-serif" font-size="86" font-weight="800" fill="#22D3EE" opacity="0.55" filter="url(#soft2)" letter-spacing="-1">Demystified Cloud</text>
  <text x="783" y="556" font-family="Arial, Helvetica, sans-serif" font-size="86" font-weight="800" fill="#F8FAFC" letter-spacing="-1">Demystified Cloud</text>
  <text x="786" y="612" font-family="Arial, Helvetica, sans-serif" font-size="40" font-weight="500" fill="#CBD5E1">with <tspan fill="#38BDF8" font-weight="700">Ammar Mudiraaj</tspan></text>
  <text x="786" y="652" font-family="Arial, Helvetica, sans-serif" font-size="26" fill="#94A3B8">IT for Non-IT — one learning path, five clouds.</text>

  <line x1="792" y1="700" x2="1430" y2="700" stroke="#22D3EE" stroke-opacity="0.22" stroke-width="2"/>
  <g font-family="Arial, Helvetica, sans-serif" font-size="24" font-weight="600" fill="#E2E8F0">
    <rect x="786" y="678" width="92" height="44" rx="22" fill="#22D3EE" fill-opacity="0.10" stroke="#22D3EE" stroke-opacity="0.40"/>
    <circle cx="804" cy="700" r="4" fill="#67E8F9"/><text x="838" y="708" text-anchor="middle">AWS</text>
    <rect x="892" y="678" width="104" height="44" rx="22" fill="#22D3EE" fill-opacity="0.10" stroke="#22D3EE" stroke-opacity="0.40"/>
    <circle cx="910" cy="700" r="4" fill="#67E8F9"/><text x="950" y="708" text-anchor="middle">Azure</text>
    <rect x="1010" y="678" width="90" height="44" rx="22" fill="#22D3EE" fill-opacity="0.10" stroke="#22D3EE" stroke-opacity="0.40"/>
    <circle cx="1028" cy="700" r="4" fill="#67E8F9"/><text x="1059" y="708" text-anchor="middle">GCP</text>
    <rect x="1114" y="678" width="150" height="44" rx="22" fill="#22D3EE" fill-opacity="0.10" stroke="#22D3EE" stroke-opacity="0.40"/>
    <circle cx="1132" cy="700" r="4" fill="#67E8F9"/><text x="1193" y="708" text-anchor="middle">Oracle Cloud</text>
    <rect x="1278" y="678" width="158" height="44" rx="22" fill="#22D3EE" fill-opacity="0.10" stroke="#22D3EE" stroke-opacity="0.40"/>
    <circle cx="1296" cy="700" r="4" fill="#67E8F9"/><text x="1361" y="708" text-anchor="middle">Alibaba Cloud</text>
  </g>
</svg>
